<svg xmlns="http://www.w3.org/2000/svg" viewBox="0 0 512 512">
  <rect width="512" height="512" rx="96" fill="#0f172a"/>
  <path fill="#f59e0b" d="M140 210C70 210 32 192 32 140V50C48 32 68 48 84 84V140C84 180 115 185 165 185V210Z"/>
  <path fill="#dc2626" d="M372 210C442 210 480 192 480 140V50C464 32 444 48 428 84V140C428 180 397 185 347 185V210Z"/>
  <path fill="white" d="M120 190C120 170 175 150 256 150C337 150 392 170 392 190V370C392 440 340 480 256 480C172 480 120 440 120 370Z"/>
  <!-- Angry angled eyes (tilted inward) -->
  <path fill="#0f172a" d="M165 240L230 250V270L165 280Z"/>
  <path fill="#0f172a" d="M347 240L282 250V270L347 280Z"/>
  <circle cx="215" cy="400" r="15" fill="#0f172a"/>
  <circle cx="297" cy="400" r="15" fill="#0f172a"/>
</svg>
